<mxfile host="www.draw.io" modified="2020-01-23T13:12:07.284Z" agent="Mozilla/5.0 (Windows NT 10.0; Win64; x64) AppleWebKit/537.36 (KHTML, like Gecko) Chrome/79.0.3945.130 Safari/537.36" etag="tTzNaYxmcVDB7INbp6Zw" version="12.5.6" type="github">
  <diagram id="C5RBs43oDa-KdzZeNtuy" name="Page-1">
    <mxGraphModel dx="538" dy="339" grid="1" gridSize="10" guides="1" tooltips="1" connect="1" arrows="1" fold="1" page="1" pageScale="1" pageWidth="827" pageHeight="1169" math="0" shadow="0">
      <root>
        <mxCell id="WIyWlLk6GJQsqaUBKTNV-0"/>
        <mxCell id="WIyWlLk6GJQsqaUBKTNV-1" parent="WIyWlLk6GJQsqaUBKTNV-0"/>
        <mxCell id="zkfFHV4jXpPFQw0GAbJ--63" value="" style="edgeStyle=orthogonalEdgeStyle;endArrow=ERmandOne;startArrow=ERmany;shadow=0;strokeWidth=1;endSize=8;startSize=8;startFill=0;endFill=0;exitX=0;exitY=0.25;exitDx=0;exitDy=0;entryX=1;entryY=0.5;entryDx=0;entryDy=0;" parent="WIyWlLk6GJQsqaUBKTNV-1" source="czT4FE3myQEkdCcgjIrX-4" target="czT4FE3myQEkdCcgjIrX-8" edge="1">
          <mxGeometry width="100" height="100" relative="1" as="geometry">
            <mxPoint x="600" y="59" as="sourcePoint"/>
            <mxPoint x="493" y="189" as="targetPoint"/>
          </mxGeometry>
        </mxCell>
        <mxCell id="zkfFHV4jXpPFQw0GAbJ--71" value="" style="edgeStyle=orthogonalEdgeStyle;endArrow=ERzeroToMany;startArrow=ERmandOne;shadow=0;strokeWidth=1;endSize=8;startSize=8;exitX=0.5;exitY=1;exitDx=0;exitDy=0;entryX=0.5;entryY=0;entryDx=0;entryDy=0;" parent="WIyWlLk6GJQsqaUBKTNV-1" source="czT4FE3myQEkdCcgjIrX-8" target="czT4FE3myQEkdCcgjIrX-9" edge="1">
          <mxGeometry width="100" height="100" relative="1" as="geometry">
            <mxPoint x="413" y="280" as="sourcePoint"/>
            <mxPoint x="413" y="450" as="targetPoint"/>
            <Array as="points"/>
          </mxGeometry>
        </mxCell>
        <mxCell id="O1W7RyEscfZ62sLBNmEL-8" value="" style="edgeStyle=orthogonalEdgeStyle;endArrow=ERzeroToMany;startArrow=ERmandOne;shadow=0;strokeWidth=1;endSize=8;startSize=8;exitX=0;exitY=0.5;exitDx=0;exitDy=0;entryX=1;entryY=0.25;entryDx=0;entryDy=0;" parent="WIyWlLk6GJQsqaUBKTNV-1" source="czT4FE3myQEkdCcgjIrX-8" target="czT4FE3myQEkdCcgjIrX-1" edge="1">
          <mxGeometry width="100" height="100" relative="1" as="geometry">
            <mxPoint x="333" y="189" as="sourcePoint"/>
            <mxPoint x="220" y="59" as="targetPoint"/>
            <Array as="points"/>
          </mxGeometry>
        </mxCell>
        <mxCell id="O1W7RyEscfZ62sLBNmEL-29" value="" style="edgeStyle=orthogonalEdgeStyle;endArrow=ERzeroToMany;startArrow=ERmandOne;shadow=0;strokeWidth=1;endSize=8;startSize=8;entryX=0.5;entryY=0;entryDx=0;entryDy=0;exitX=1;exitY=0.25;exitDx=0;exitDy=0;" parent="WIyWlLk6GJQsqaUBKTNV-1" source="czT4FE3myQEkdCcgjIrX-10" target="czT4FE3myQEkdCcgjIrX-15" edge="1">
          <mxGeometry width="100" height="100" relative="1" as="geometry">
            <mxPoint x="260" y="550" as="sourcePoint"/>
            <mxPoint x="310" y="755" as="targetPoint"/>
            <Array as="points">
              <mxPoint x="520" y="495"/>
              <mxPoint x="520" y="663"/>
              <mxPoint x="310" y="663"/>
            </Array>
          </mxGeometry>
        </mxCell>
        <mxCell id="O1W7RyEscfZ62sLBNmEL-30" value="" style="edgeStyle=orthogonalEdgeStyle;endArrow=ERzeroToMany;startArrow=ERmandOne;shadow=0;strokeWidth=1;endSize=8;startSize=8;entryX=0.5;entryY=0;entryDx=0;entryDy=0;exitX=0;exitY=0.25;exitDx=0;exitDy=0;" parent="WIyWlLk6GJQsqaUBKTNV-1" source="czT4FE3myQEkdCcgjIrX-10" target="czT4FE3myQEkdCcgjIrX-13" edge="1">
          <mxGeometry width="100" height="100" relative="1" as="geometry">
            <mxPoint x="333" y="556" as="sourcePoint"/>
            <mxPoint x="100" y="760" as="targetPoint"/>
            <Array as="points"/>
          </mxGeometry>
        </mxCell>
        <mxCell id="O1W7RyEscfZ62sLBNmEL-31" value="" style="edgeStyle=orthogonalEdgeStyle;endArrow=ERzeroToMany;startArrow=ERmandOne;shadow=0;strokeWidth=1;endSize=8;startSize=8;entryX=0.5;entryY=0;entryDx=0;entryDy=0;exitX=1;exitY=0.25;exitDx=0;exitDy=0;" parent="WIyWlLk6GJQsqaUBKTNV-1" source="czT4FE3myQEkdCcgjIrX-10" target="czT4FE3myQEkdCcgjIrX-17" edge="1">
          <mxGeometry width="100" height="100" relative="1" as="geometry">
            <mxPoint x="493" y="556" as="sourcePoint"/>
            <mxPoint x="520" y="760" as="targetPoint"/>
            <Array as="points">
              <mxPoint x="520" y="495"/>
            </Array>
          </mxGeometry>
        </mxCell>
        <mxCell id="O1W7RyEscfZ62sLBNmEL-32" value="" style="edgeStyle=orthogonalEdgeStyle;endArrow=ERzeroToMany;startArrow=ERmandOne;shadow=0;strokeWidth=1;endSize=8;startSize=8;entryX=0.5;entryY=0;entryDx=0;entryDy=0;exitX=1;exitY=0.25;exitDx=0;exitDy=0;" parent="WIyWlLk6GJQsqaUBKTNV-1" source="czT4FE3myQEkdCcgjIrX-10" target="czT4FE3myQEkdCcgjIrX-19" edge="1">
          <mxGeometry width="100" height="100" relative="1" as="geometry">
            <mxPoint x="493" y="556" as="sourcePoint"/>
            <mxPoint x="730" y="760" as="targetPoint"/>
            <Array as="points"/>
          </mxGeometry>
        </mxCell>
        <mxCell id="czT4FE3myQEkdCcgjIrX-0" value="Droits" style="swimlane;childLayout=stackLayout;horizontal=1;startSize=30;horizontalStack=0;fillColor=#008cff;fontColor=#FFFFFF;rounded=1;fontSize=14;fontStyle=0;strokeWidth=2;resizeParent=0;resizeLast=1;shadow=0;dashed=0;align=center;" vertex="1" parent="WIyWlLk6GJQsqaUBKTNV-1">
          <mxGeometry x="40" y="20" width="160" height="120" as="geometry"/>
        </mxCell>
        <mxCell id="czT4FE3myQEkdCcgjIrX-1" value="id_droits&#xa;Niveau_droits&#xa;Description_droit" style="align=left;strokeColor=none;fillColor=none;spacingLeft=4;fontSize=12;verticalAlign=top;resizable=0;rotatable=0;part=1;" vertex="1" parent="czT4FE3myQEkdCcgjIrX-0">
          <mxGeometry y="30" width="160" height="90" as="geometry"/>
        </mxCell>
        <mxCell id="czT4FE3myQEkdCcgjIrX-3" value="Departements" style="swimlane;childLayout=stackLayout;horizontal=1;startSize=30;horizontalStack=0;fillColor=#008cff;fontColor=#FFFFFF;rounded=1;fontSize=14;fontStyle=0;strokeWidth=2;resizeParent=0;resizeLast=1;shadow=0;dashed=0;align=center;" vertex="1" parent="WIyWlLk6GJQsqaUBKTNV-1">
          <mxGeometry x="630" y="20" width="160" height="120" as="geometry"/>
        </mxCell>
        <mxCell id="czT4FE3myQEkdCcgjIrX-4" value="id_departements&#xa;nom_departement" style="align=left;strokeColor=none;fillColor=none;spacingLeft=4;fontSize=12;verticalAlign=top;resizable=0;rotatable=0;part=1;" vertex="1" parent="czT4FE3myQEkdCcgjIrX-3">
          <mxGeometry y="30" width="160" height="90" as="geometry"/>
        </mxCell>
        <mxCell id="czT4FE3myQEkdCcgjIrX-5" value="Text" style="text;html=1;align=center;verticalAlign=middle;resizable=0;points=[];autosize=1;" vertex="1" parent="WIyWlLk6GJQsqaUBKTNV-1">
          <mxGeometry x="714" y="53" width="40" height="20" as="geometry"/>
        </mxCell>
        <mxCell id="czT4FE3myQEkdCcgjIrX-7" value="Utilisateurs" style="swimlane;childLayout=stackLayout;horizontal=1;startSize=30;horizontalStack=0;fillColor=#008cff;fontColor=#FFFFFF;rounded=1;fontSize=14;fontStyle=0;strokeWidth=2;resizeParent=0;resizeLast=1;shadow=0;dashed=0;align=center;" vertex="1" parent="WIyWlLk6GJQsqaUBKTNV-1">
          <mxGeometry x="333.5" y="140" width="160" height="130" as="geometry"/>
        </mxCell>
        <mxCell id="czT4FE3myQEkdCcgjIrX-8" value="id_utilisateurs&#xa;username&#xa;Nom_utilisateurs&#xa;Prénom&#xa;Numéro_Fix&#xa;Numéro_Mob&#xa;E-mail" style="align=left;strokeColor=none;fillColor=none;spacingLeft=4;fontSize=12;verticalAlign=top;resizable=0;rotatable=0;part=1;" vertex="1" parent="czT4FE3myQEkdCcgjIrX-7">
          <mxGeometry y="30" width="160" height="100" as="geometry"/>
        </mxCell>
        <mxCell id="czT4FE3myQEkdCcgjIrX-9" value="Tickets" style="swimlane;childLayout=stackLayout;horizontal=1;startSize=30;horizontalStack=0;fillColor=#008cff;fontColor=#FFFFFF;rounded=1;fontSize=14;fontStyle=0;strokeWidth=2;resizeParent=0;resizeLast=1;shadow=0;dashed=0;align=center;" vertex="1" parent="WIyWlLk6GJQsqaUBKTNV-1">
          <mxGeometry x="333.5" y="440" width="160" height="130" as="geometry"/>
        </mxCell>
        <mxCell id="czT4FE3myQEkdCcgjIrX-10" value="id_tickets&#xa;Date_ouverture&#xa;IP&#xa;Nom_machine&#xa;Description_ticket&#xa;Résolution" style="align=left;strokeColor=none;fillColor=none;spacingLeft=4;fontSize=12;verticalAlign=top;resizable=0;rotatable=0;part=1;" vertex="1" parent="czT4FE3myQEkdCcgjIrX-9">
          <mxGeometry y="30" width="160" height="100" as="geometry"/>
        </mxCell>
        <mxCell id="czT4FE3myQEkdCcgjIrX-13" value="Commentaires" style="swimlane;childLayout=stackLayout;horizontal=1;startSize=30;horizontalStack=0;fillColor=#008cff;fontColor=#FFFFFF;rounded=1;fontSize=14;fontStyle=0;strokeWidth=2;resizeParent=0;resizeLast=1;shadow=0;dashed=0;align=center;" vertex="1" parent="WIyWlLk6GJQsqaUBKTNV-1">
          <mxGeometry x="20" y="755" width="160" height="75" as="geometry"/>
        </mxCell>
        <mxCell id="czT4FE3myQEkdCcgjIrX-14" value="id_commentaire&#xa;Commentaire" style="align=left;strokeColor=none;fillColor=none;spacingLeft=4;fontSize=12;verticalAlign=top;resizable=0;rotatable=0;part=1;" vertex="1" parent="czT4FE3myQEkdCcgjIrX-13">
          <mxGeometry y="30" width="160" height="45" as="geometry"/>
        </mxCell>
        <mxCell id="czT4FE3myQEkdCcgjIrX-15" value="Status" style="swimlane;childLayout=stackLayout;horizontal=1;startSize=30;horizontalStack=0;fillColor=#008cff;fontColor=#FFFFFF;rounded=1;fontSize=14;fontStyle=0;strokeWidth=2;resizeParent=0;resizeLast=1;shadow=0;dashed=0;align=center;" vertex="1" parent="WIyWlLk6GJQsqaUBKTNV-1">
          <mxGeometry x="230" y="755" width="160" height="85" as="geometry"/>
        </mxCell>
        <mxCell id="czT4FE3myQEkdCcgjIrX-16" value="id_status&#xa;Nom_status&#xa;Description_status&#xa;" style="align=left;strokeColor=none;fillColor=none;spacingLeft=4;fontSize=12;verticalAlign=top;resizable=0;rotatable=0;part=1;" vertex="1" parent="czT4FE3myQEkdCcgjIrX-15">
          <mxGeometry y="30" width="160" height="55" as="geometry"/>
        </mxCell>
        <mxCell id="czT4FE3myQEkdCcgjIrX-17" value="Impacte" style="swimlane;childLayout=stackLayout;horizontal=1;startSize=30;horizontalStack=0;fillColor=#008cff;fontColor=#FFFFFF;rounded=1;fontSize=14;fontStyle=0;strokeWidth=2;resizeParent=0;resizeLast=1;shadow=0;dashed=0;align=center;" vertex="1" parent="WIyWlLk6GJQsqaUBKTNV-1">
          <mxGeometry x="440" y="755" width="160" height="75" as="geometry"/>
        </mxCell>
        <mxCell id="czT4FE3myQEkdCcgjIrX-18" value="id_impacte&#xa;Description_impacte&#xa;&#xa;" style="align=left;strokeColor=none;fillColor=none;spacingLeft=4;fontSize=12;verticalAlign=top;resizable=0;rotatable=0;part=1;" vertex="1" parent="czT4FE3myQEkdCcgjIrX-17">
          <mxGeometry y="30" width="160" height="45" as="geometry"/>
        </mxCell>
        <mxCell id="czT4FE3myQEkdCcgjIrX-19" value="Priorite" style="swimlane;childLayout=stackLayout;horizontal=1;startSize=30;horizontalStack=0;fillColor=#008cff;fontColor=#FFFFFF;rounded=1;fontSize=14;fontStyle=0;strokeWidth=2;resizeParent=0;resizeLast=1;shadow=0;dashed=0;align=center;" vertex="1" parent="WIyWlLk6GJQsqaUBKTNV-1">
          <mxGeometry x="654" y="755" width="160" height="92.5" as="geometry"/>
        </mxCell>
        <mxCell id="czT4FE3myQEkdCcgjIrX-20" value="id_priorite&#xa;Nom_priorite&#xa;Description_priorite&#xa;" style="align=left;strokeColor=none;fillColor=none;spacingLeft=4;fontSize=12;verticalAlign=top;resizable=0;rotatable=0;part=1;" vertex="1" parent="czT4FE3myQEkdCcgjIrX-19">
          <mxGeometry y="30" width="160" height="62.5" as="geometry"/>
        </mxCell>
        <mxCell id="czT4FE3myQEkdCcgjIrX-21" value="1, 1" style="text;html=1;align=center;verticalAlign=middle;resizable=0;points=[];autosize=1;" vertex="1" parent="WIyWlLk6GJQsqaUBKTNV-1">
          <mxGeometry x="293.5" y="195" width="40" height="20" as="geometry"/>
        </mxCell>
        <mxCell id="czT4FE3myQEkdCcgjIrX-22" value="0, n" style="text;html=1;align=center;verticalAlign=middle;resizable=0;points=[];autosize=1;" vertex="1" parent="WIyWlLk6GJQsqaUBKTNV-1">
          <mxGeometry x="200" y="50" width="40" height="20" as="geometry"/>
        </mxCell>
        <mxCell id="czT4FE3myQEkdCcgjIrX-23" value="1, 1" style="text;html=1;align=center;verticalAlign=middle;resizable=0;points=[];autosize=1;" vertex="1" parent="WIyWlLk6GJQsqaUBKTNV-1">
          <mxGeometry x="493.5" y="195" width="40" height="20" as="geometry"/>
        </mxCell>
        <mxCell id="czT4FE3myQEkdCcgjIrX-24" value="0, n" style="text;html=1;align=center;verticalAlign=middle;resizable=0;points=[];autosize=1;" vertex="1" parent="WIyWlLk6GJQsqaUBKTNV-1">
          <mxGeometry x="590" y="50" width="40" height="20" as="geometry"/>
        </mxCell>
        <mxCell id="czT4FE3myQEkdCcgjIrX-25" value="0, n" style="text;html=1;align=center;verticalAlign=middle;resizable=0;points=[];autosize=1;" vertex="1" parent="WIyWlLk6GJQsqaUBKTNV-1">
          <mxGeometry x="410" y="270" width="40" height="20" as="geometry"/>
        </mxCell>
        <mxCell id="czT4FE3myQEkdCcgjIrX-26" value="1, 1" style="text;html=1;align=center;verticalAlign=middle;resizable=0;points=[];autosize=1;" vertex="1" parent="WIyWlLk6GJQsqaUBKTNV-1">
          <mxGeometry x="410" y="420" width="40" height="20" as="geometry"/>
        </mxCell>
        <mxCell id="czT4FE3myQEkdCcgjIrX-27" value="1, 1" style="text;html=1;align=center;verticalAlign=middle;resizable=0;points=[];autosize=1;" vertex="1" parent="WIyWlLk6GJQsqaUBKTNV-1">
          <mxGeometry x="100" y="735" width="40" height="20" as="geometry"/>
        </mxCell>
        <mxCell id="czT4FE3myQEkdCcgjIrX-28" value="1, 1" style="text;html=1;align=center;verticalAlign=middle;resizable=0;points=[];autosize=1;" vertex="1" parent="WIyWlLk6GJQsqaUBKTNV-1">
          <mxGeometry x="493.5" y="470" width="40" height="20" as="geometry"/>
        </mxCell>
        <mxCell id="czT4FE3myQEkdCcgjIrX-29" value="0, n" style="text;html=1;align=center;verticalAlign=middle;resizable=0;points=[];autosize=1;" vertex="1" parent="WIyWlLk6GJQsqaUBKTNV-1">
          <mxGeometry x="310" y="735" width="40" height="20" as="geometry"/>
        </mxCell>
        <mxCell id="czT4FE3myQEkdCcgjIrX-30" value="0, n" style="text;html=1;align=center;verticalAlign=middle;resizable=0;points=[];autosize=1;" vertex="1" parent="WIyWlLk6GJQsqaUBKTNV-1">
          <mxGeometry x="520" y="735" width="40" height="20" as="geometry"/>
        </mxCell>
        <mxCell id="czT4FE3myQEkdCcgjIrX-35" value="0, n" style="text;html=1;align=center;verticalAlign=middle;resizable=0;points=[];autosize=1;" vertex="1" parent="WIyWlLk6GJQsqaUBKTNV-1">
          <mxGeometry x="740" y="735" width="40" height="20" as="geometry"/>
        </mxCell>
        <mxCell id="czT4FE3myQEkdCcgjIrX-36" value="0, n" style="text;html=1;align=center;verticalAlign=middle;resizable=0;points=[];autosize=1;" vertex="1" parent="WIyWlLk6GJQsqaUBKTNV-1">
          <mxGeometry x="290" y="470" width="40" height="20" as="geometry"/>
        </mxCell>
      </root>
    </mxGraphModel>
  </diagram>
</mxfile>
